<?xml version="1.0" standalone="no"?>
<!DOCTYPE svg PUBLIC "-//W3C//DTD SVG 20010904//EN"
 "http://www.w3.org/TR/2001/REC-SVG-20010904/DTD/svg10.dtd">
<svg version="1.0" xmlns="http://www.w3.org/2000/svg"
 width="1673.000000pt" height="1673.000000pt" viewBox="0 0 1673.000000 1673.000000"
 preserveAspectRatio="xMidYMid meet">
<metadata>
Created by potrace 1.14, written by Peter Selinger 2001-2017
</metadata>
<g transform="translate(0.000000,1673.000000) scale(0.100000,-0.100000)"
fill="#000000" stroke="none">
<path d="M8335 14480 c-65 -29 -194 -82 -495 -205 -324 -133 -326 -134 -399
-166 -30 -13 -57 -24 -60 -25 -3 0 -19 -6 -36 -13 -146 -60 -253 -104 -270
-112 -35 -15 -410 -170 -420 -173 -11 -3 -28 -10 -122 -50 -34 -14 -112 -47
-175 -72 -62 -26 -138 -57 -168 -69 -30 -13 -93 -39 -140 -58 -47 -19 -124
-51 -172 -71 -49 -20 -125 -51 -170 -70 -46 -18 -312 -128 -593 -244 -280
-116 -562 -231 -625 -257 -63 -26 -128 -53 -145 -60 -16 -7 -106 -45 -200 -83
-276 -113 -858 -352 -890 -367 -25 -11 -1164 -479 -1975 -812 -113 -46 -214
-88 -225 -93 -11 -5 -103 -43 -205 -85 -102 -42 -194 -80 -205 -85 -73 -33
-587 -240 -597 -240 -20 -1 13 -17 110 -56 48 -19 102 -42 121 -51 l34 -15
-34 -15 c-19 -8 -83 -35 -144 -59 -122 -50 -138 -60 -109 -70 36 -11 738 -294
819 -329 17 -7 116 -48 220 -90 105 -42 237 -96 295 -119 58 -24 164 -67 235
-95 169 -68 164 -66 205 -84 19 -8 64 -27 100 -41 l65 -26 0 -1358 0 -1357 50
-1 c28 0 55 1 60 3 7 2 10 454 10 1333 0 732 1 1330 2 1330 2 0 267 -107 453
-184 58 -24 175 -71 260 -106 85 -34 169 -68 185 -75 17 -7 98 -40 180 -73 83
-33 174 -71 203 -84 l54 -23 2 -1825 c1 -1004 5 -1834 8 -1845 3 -11 14 -47
23 -80 68 -236 288 -492 605 -703 327 -217 829 -435 1310 -567 124 -35 241
-66 260 -70 8 -2 62 -15 120 -29 58 -13 116 -27 130 -30 14 -2 93 -18 175 -35
83 -16 166 -33 185 -36 19 -3 58 -10 85 -15 63 -12 121 -21 162 -25 18 -2 40
-6 50 -9 10 -3 43 -8 73 -11 30 -3 66 -8 80 -10 25 -4 73 -11 141 -19 20 -3
67 -8 105 -11 38 -3 80 -8 94 -10 23 -4 81 -10 195 -20 37 -3 166 -13 275 -20
287 -21 1172 -28 1475 -12 277 15 461 28 575 43 30 3 62 6 70 6 8 0 47 4 85 8
39 5 97 12 130 15 33 4 67 8 75 10 8 1 44 6 80 10 36 4 72 9 80 10 34 6 101
17 123 20 12 2 42 6 67 9 25 3 56 8 70 11 14 3 41 8 60 11 19 3 78 14 130 24
52 11 111 22 130 25 19 3 76 15 125 27 80 18 185 41 238 53 10 2 27 7 37 10
10 3 27 8 37 10 10 2 61 15 113 30 52 14 118 32 145 40 91 25 413 134 444 150
17 8 33 15 36 15 25 1 313 124 440 189 181 91 404 228 474 290 13 11 27 21 30
21 12 1 160 139 231 216 124 135 217 315 247 474 3 14 6 840 7 1837 1 997 4
1814 6 1816 5 5 134 58 570 234 102 41 199 80 215 88 34 14 1225 498 1295 526
69 26 662 268 685 278 11 5 56 24 100 41 105 42 480 194 524 213 39 16 39 16
-59 55 -41 17 -97 40 -125 52 l-50 21 40 19 c22 11 43 19 48 20 4 0 26 9 50
20 23 11 71 30 106 43 l65 24 -30 16 c-16 8 -90 40 -164 70 -153 62 -254 104
-455 187 -77 32 -345 142 -595 245 -250 103 -468 193 -485 200 -16 7 -120 50
-230 95 -110 45 -213 88 -229 96 -16 8 -33 14 -38 14 -5 0 -28 9 -51 19 -58
26 -282 120 -337 140 -25 10 -61 25 -80 33 -19 9 -147 62 -285 118 -137 56
-290 119 -340 140 -49 21 -202 84 -340 140 -137 56 -263 108 -280 116 -16 7
-174 72 -350 144 -297 121 -359 147 -535 220 -36 15 -126 52 -200 83 -74 30
-252 104 -395 162 -143 59 -309 127 -368 152 -60 24 -188 77 -285 117 -98 40
-256 106 -352 145 -96 40 -184 76 -195 81 -11 5 -148 61 -305 126 -157 64
-298 122 -315 129 -16 8 -120 50 -230 95 -110 44 -225 92 -255 105 -116 49
-623 256 -624 254 -1 0 -19 -9 -41 -19z"/>
<path d="M1682 10026 c-5 -6 -8 -621 -7 -1366 l0 -1355 58 -1 c34 0 57 4 58
10 4 38 3 2716 -1 2717 -42 7 -101 4 -108 -5z"/>
<path d="M1868 7065 c-2 -1 -28 -5 -58 -9 -74 -8 -186 -65 -244 -122 -56 -57
-101 -133 -120 -205 -15 -58 -14 -181 2 -240 15 -59 64 -140 113 -189 216
-221 581 -163 722 116 33 64 38 90 43 185 7 160 -70 305 -209 393 -28 18 -65
37 -82 41 -16 5 -32 9 -35 10 -36 12 -126 25 -132 20z"/>
<path d="M1629 5867 c-2 -3 -6 -38 -14 -117 -3 -41 -8 -93 -11 -115 -2 -22 -6
-71 -10 -110 -3 -38 -7 -86 -9 -105 -2 -19 -6 -69 -10 -110 -6 -77 -12 -135
-20 -217 -2 -27 -7 -77 -10 -113 -3 -36 -7 -85 -10 -110 -2 -25 -7 -76 -10
-115 -4 -38 -8 -88 -10 -110 -3 -22 -7 -74 -10 -115 -3 -41 -8 -86 -10 -100
-3 -14 -7 -63 -10 -110 -3 -47 -8 -101 -10 -120 -2 -19 -7 -69 -10 -110 -3
-41 -8 -86 -10 -100 -2 -14 -6 -63 -10 -110 -3 -47 -8 -96 -10 -110 -2 -14 -7
-63 -10 -110 -3 -47 -8 -96 -10 -110 -2 -14 -7 -61 -10 -105 -3 -44 -7 -96
-10 -115 -2 -19 -7 -71 -11 -115 -3 -44 -8 -93 -9 -110 -2 -16 -6 -66 -10
-110 -3 -44 -8 -91 -10 -105 -2 -14 -7 -63 -10 -110 -3 -47 -7 -96 -10 -110
-2 -14 -7 -63 -10 -110 -4 -47 -8 -101 -10 -120 -2 -19 -7 -73 -11 -119 l-6
-85 28 19 c98 64 120 74 189 80 39 3 102 9 140 13 95 10 434 9 520 -1 39 -5
90 -10 115 -13 67 -5 89 -12 134 -43 23 -15 51 -33 63 -40 24 -12 24 -20 7
164 -3 39 -7 86 -9 105 -2 19 -6 69 -10 110 -8 87 -11 115 -19 225 -4 44 -9
96 -11 115 -4 35 -11 112 -20 205 -2 28 -7 77 -10 110 -3 33 -7 80 -9 105 -3
25 -7 72 -10 105 -3 33 -8 89 -11 125 -3 36 -7 85 -10 110 -3 25 -7 70 -10
100 -2 30 -7 81 -10 113 -3 31 -7 83 -10 115 -3 31 -7 82 -10 112 -3 30 -7 75
-10 100 -2 25 -6 74 -10 110 -3 36 -7 85 -9 110 -6 69 -18 201 -22 235 -1 17
-5 62 -9 100 -3 39 -7 88 -10 110 -3 36 -13 139 -20 220 -1 17 -6 71 -9 120
-4 50 -9 100 -11 111 -2 12 -6 61 -10 110 -4 49 -9 100 -11 114 -2 14 -7 64
-10 111 -3 48 -7 95 -9 105 -2 11 -4 25 -4 32 -1 9 -61 12 -276 11 -151 0
-276 -1 -276 -2z"/>
</g>
</svg>
